<svg width="410" height="60" viewBox="0 0 410 60" fill="none" xmlns="http://www.w3.org/2000/svg">
<path d="M0 11.6129V0H49.7301V11.6129H31.8893V59.1623H17.8695V11.6129H0Z" fill="white"/>
<path d="M70.9034 60C66.2876 60 62.3038 59.0852 58.9521 57.2557C55.6195 55.4068 53.0531 52.778 51.2527 49.3693C49.4715 45.9413 48.5809 41.8681 48.5809 37.1497C48.5809 32.5662 49.4811 28.5604 51.2814 25.1324C53.0818 21.6851 55.6195 19.0082 58.8946 17.1016C62.1697 15.1757 66.029 14.2128 70.4725 14.2128C73.6135 14.2128 76.4864 14.7039 79.0912 15.6861C81.696 16.6683 83.9464 18.1223 85.8425 20.0481C87.7386 21.974 89.2134 24.3524 90.2668 27.1834C91.3202 29.9952 91.8469 33.221 91.8469 36.8609V40.3852H53.4936V32.181H78.7752C78.756 30.6789 78.4017 29.3404 77.7122 28.1656C77.0227 26.9909 76.0746 26.0761 74.868 25.4213C73.6805 24.7472 72.3111 24.4102 70.7598 24.4102C69.1892 24.4102 67.7815 24.7665 66.5366 25.4791C65.2916 26.1724 64.3053 27.1257 63.5775 28.339C62.8497 29.533 62.4666 30.8907 62.4283 32.4121V40.7607C62.4283 42.571 62.7826 44.1598 63.4913 45.5272C64.1999 46.8753 65.2055 47.9249 66.5078 48.676C67.8102 49.4271 69.3616 49.8026 71.162 49.8026C72.4069 49.8026 73.5369 49.6293 74.552 49.2826C75.5671 48.936 76.4385 48.4256 77.1663 47.7516C77.8941 47.0775 78.44 46.2494 78.8039 45.2672L91.7033 45.6428C91.167 48.5508 89.9891 51.0833 88.1696 53.2402C86.3692 55.3779 84.0039 57.0438 81.0735 58.2378C78.1431 59.4126 74.7531 60 70.9034 60Z" fill="white"/>
<path d="M119.621 60C114.967 60 110.973 59.0371 107.641 57.1112C104.327 55.1854 101.78 52.5084 99.9988 49.0804C98.2176 45.6331 97.327 41.6466 97.327 37.1208C97.327 32.5758 98.2176 28.5893 99.9988 25.1613C101.799 21.714 104.356 19.0274 107.669 17.1016C111.002 15.1757 114.976 14.2128 119.592 14.2128C123.672 14.2128 127.224 14.9543 130.251 16.4372C133.296 17.9201 135.671 20.0193 137.375 22.7347C139.099 25.4309 140.009 28.5989 140.105 32.2388H126.975C126.707 29.9663 125.941 28.1849 124.677 26.8946C123.432 25.6042 121.804 24.9591 119.793 24.9591C118.165 24.9591 116.738 25.4213 115.512 26.3457C114.287 27.2508 113.329 28.5989 112.64 30.39C111.969 32.1618 111.634 34.3572 111.634 36.9764C111.634 39.5956 111.969 41.8103 112.64 43.6206C113.329 45.4117 114.287 46.7694 115.512 47.6938C116.738 48.5989 118.165 49.0515 119.793 49.0515C121.096 49.0515 122.245 48.7723 123.241 48.2138C124.256 47.6553 125.089 46.8368 125.74 45.7583C126.391 44.6606 126.803 43.3317 126.975 41.7718H140.105C139.971 45.4309 139.061 48.6278 137.375 51.3625C135.709 54.0973 133.363 56.2253 130.337 57.7467C127.33 59.2489 123.758 60 119.621 60Z" fill="white"/>
<path d="M161.343 33.8565V59.1623H147.294V0H160.883V22.9369H161.371C162.367 20.2022 163.995 18.0645 166.255 16.5238C168.534 14.9831 171.321 14.2128 174.615 14.2128C177.718 14.2128 180.419 14.9061 182.717 16.2927C185.015 17.6601 186.797 19.5956 188.061 22.0992C189.344 24.6028 189.976 27.5301 189.957 30.8811V59.1623H175.908V33.6543C175.927 31.1892 175.314 29.2634 174.07 27.8767C172.825 26.4901 171.072 25.7968 168.812 25.7968C167.337 25.7968 166.035 26.1242 164.905 26.779C163.794 27.4145 162.923 28.3293 162.291 29.5234C161.678 30.7174 161.362 32.1618 161.343 33.8565Z" fill="white"/>
<path d="M208.724 59.1623L191.601 0H207.316L216.194 38.7675H216.682L226.823 0H239.637L249.778 38.8541H250.266L259.172 0H274.858L257.765 59.1623H244.061L233.46 23.2836H233L222.399 59.1623H208.724Z" fill="url(#paint0_linear_40_259)"/>
<path d="M288.275 59.9133C285.459 59.9133 282.96 59.4415 280.777 58.4978C278.612 57.5349 276.898 56.0905 275.634 54.1647C274.389 52.2195 273.767 49.7833 273.767 46.856C273.767 44.391 274.198 42.311 275.059 40.6163C275.921 38.9215 277.109 37.5445 278.622 36.4853C280.135 35.4261 281.878 34.6269 283.851 34.0876C285.823 33.5291 287.93 33.1536 290.171 32.961C292.68 32.7299 294.701 32.4892 296.233 32.2388C297.765 31.9692 298.876 31.5936 299.565 31.1122C300.274 30.6115 300.628 29.9085 300.628 29.0034V28.8589C300.628 27.376 300.121 26.2301 299.106 25.4213C298.091 24.6124 296.721 24.208 294.997 24.208C293.14 24.208 291.646 24.6124 290.516 25.4213C289.386 26.2301 288.668 27.3471 288.361 28.7723L275.404 28.3101C275.787 25.6139 276.774 23.2065 278.363 21.0881C279.972 18.9504 282.175 17.2749 284.971 16.0616C287.786 14.8291 291.167 14.2128 295.112 14.2128C297.928 14.2128 300.523 14.5498 302.898 15.2239C305.273 15.8787 307.341 16.8416 309.103 18.1127C310.866 19.3645 312.225 20.9052 313.183 22.7347C314.16 24.5643 314.648 26.6538 314.648 29.0034V59.1623H301.433V52.9803H301.088C300.303 54.4824 299.297 55.7535 298.071 56.7934C296.865 57.8334 295.438 58.6134 293.791 59.1334C292.163 59.6533 290.324 59.9133 288.275 59.9133ZM292.613 50.6692C294.126 50.6692 295.486 50.3611 296.693 49.7448C297.918 49.1286 298.895 48.2812 299.623 47.2027C300.351 46.105 300.715 44.8339 300.715 43.3895V39.1719C300.312 39.3837 299.824 39.5763 299.249 39.7496C298.694 39.923 298.081 40.0867 297.411 40.2407C296.74 40.3948 296.051 40.5296 295.342 40.6452C294.634 40.7607 293.954 40.8666 293.302 40.9629C291.981 41.1748 290.851 41.5022 289.912 41.9451C288.993 42.3881 288.284 42.9658 287.786 43.6784C287.308 44.3717 287.068 45.1998 287.068 46.1627C287.068 47.6264 287.585 48.7434 288.62 49.5137C289.673 50.2841 291.004 50.6692 292.613 50.6692Z" fill="url(#paint1_linear_40_259)"/>
<path d="M364.464 14.7906L349.324 59.1623H333.236L318.124 14.7906H332.92L341.05 45.3539H341.51L349.669 14.7906H364.464Z" fill="url(#paint2_linear_40_259)"/>
<path d="M389.057 60C384.441 60 380.457 59.0852 377.105 57.2557C373.773 55.4068 371.206 52.778 369.406 49.3693C367.625 45.9413 366.734 41.8681 366.734 37.1497C366.734 32.5662 367.634 28.5604 369.435 25.1324C371.235 21.6851 373.773 19.0082 377.048 17.1016C380.323 15.1757 384.182 14.2128 388.626 14.2128C391.767 14.2128 394.64 14.7039 397.244 15.6861C399.849 16.6683 402.1 18.1223 403.996 20.0481C405.892 21.974 407.367 24.3524 408.42 27.1834C409.473 29.9952 410 33.221 410 36.8609V40.3852H371.647V32.181H396.928C396.909 30.6789 396.555 29.3404 395.865 28.1656C395.176 26.9909 394.228 26.0761 393.021 25.4213C391.834 24.7472 390.464 24.4102 388.913 24.4102C387.342 24.4102 385.935 24.7665 384.69 25.4791C383.445 26.1724 382.458 27.1257 381.731 28.339C381.003 29.533 380.62 30.8907 380.581 32.4121V40.7607C380.581 42.571 380.936 44.1598 381.644 45.5272C382.353 46.8753 383.359 47.9249 384.661 48.676C385.963 49.4271 387.515 49.8026 389.315 49.8026C390.56 49.8026 391.69 49.6293 392.705 49.2826C393.72 48.936 394.592 48.4256 395.319 47.7516C396.047 47.0775 396.593 46.2494 396.957 45.2672L409.856 45.6428C409.32 48.5508 408.142 51.0833 406.323 53.2402C404.522 55.3779 402.157 57.0438 399.227 58.2378C396.296 59.4126 392.906 60 389.057 60Z" fill="url(#paint3_linear_40_259)"/>
<defs>
<linearGradient id="paint0_linear_40_259" x1="60.8566" y1="48.9538" x2="73.9542" y2="-31.4647" gradientUnits="userSpaceOnUse">
<stop stop-color="#F7E93F"/>
<stop offset="0.5112" stop-color="#FB09B4"/>
<stop offset="1" stop-color="#9100F8"/>
</linearGradient>
<linearGradient id="paint1_linear_40_259" x1="60.8566" y1="48.9538" x2="73.9542" y2="-31.4647" gradientUnits="userSpaceOnUse">
<stop stop-color="#F7E93F"/>
<stop offset="0.5112" stop-color="#FB09B4"/>
<stop offset="1" stop-color="#9100F8"/>
</linearGradient>
<linearGradient id="paint2_linear_40_259" x1="60.8566" y1="48.9538" x2="73.9542" y2="-31.4647" gradientUnits="userSpaceOnUse">
<stop stop-color="#F7E93F"/>
<stop offset="0.5112" stop-color="#FB09B4"/>
<stop offset="1" stop-color="#9100F8"/>
</linearGradient>
<linearGradient id="paint3_linear_40_259" x1="60.8566" y1="48.9538" x2="73.9542" y2="-31.4647" gradientUnits="userSpaceOnUse">
<stop stop-color="#F7E93F"/>
<stop offset="0.5112" stop-color="#FB09B4"/>
<stop offset="1" stop-color="#9100F8"/>
</linearGradient>
</defs>
</svg>
